<?xml version="1.0" encoding="UTF-8"?>
<svg id="Layer_2" data-name="Layer 2" xmlns="http://www.w3.org/2000/svg" viewBox="0 0 263.98 360.35">
  <defs>
    <style>
      .cls-1 {
        fill: #0e1216;
      }

      .cls-1, .cls-2, .cls-3, .cls-4, .cls-5, .cls-6, .cls-7 {
        stroke-width: 0px;
      }

      .cls-2 {
        fill: #a9dbd0;
      }

      .cls-3 {
        fill: #45c4d8;
      }

      .cls-4 {
        fill: #3cafb2;
      }

      .cls-5 {
        fill: #6fcff1;
      }

      .cls-6 {
        fill: #2379bc;
      }

      .cls-7 {
        fill: #0fade4;
      }
    </style>
  </defs>
  <g id="Layer_1-2" data-name="Layer 1">
    <g>
      <g>
        <polyline class="cls-1" points="137.16 306.79 137.16 359.94 141.62 359.94 146.08 359.94 146.08 306.79 146.08 254.36 141.62 254.36 137.16 254.36 137.16 306.79"/>
        <path class="cls-1" d="m231.63,308.2v52.15h8.37l.14-19.66.14-19.66,6.83,19.52,6.83,19.52h5.02c2.79,0,5.02,0,5.02-.14s-3.35-9.48-7.39-20.91c-4.04-11.43-7.53-21.19-7.81-21.75-.28-.98.42-2.79,7.11-17.99,4.04-9.34,7.53-17.15,7.67-17.29.14-.28-.98-.42-4.74-.42h-4.88l-6.83,16.45-6.83,16.45-.14-29.28-.14-30.83h-8.37v53.84"/>
        <path class="cls-1" d="m202.89,279.46c-3.63,1.12-7.81,4.88-8.23,9.48-.7,2.65-1.39,56.33-.56,60.37,2.65,12.55,21.05,15.2,26.49,3.76,1.53-3.21,1.67-5.02,1.67-16.31v-10.32h-8.37v10.04c0,9.62,0,10.04-.84,11.57-1.95,3.9-7.95,3.76-9.9-.28-.84-1.81-1.39-48.94-.56-53.96.98-5.86,6.97-7.67,10.46-3.07.7.98.7,1.53.84,11.29l.14,10.32h8.09v-10.74c0-13.25-.28-14.92-3.35-18.68-2.93-3.49-10.6-5.16-15.89-3.49"/>
        <path class="cls-1" d="m127.74,316.83c-.14-32.21,0-30.67-2.51-34.44-3.21-4.88-12.55-5.16-17.29-.56l-1.25,1.25v-28.72h-8.92l.14,52.42v53.28h5.02l.56-3.64c.56-2.65.7-2.65,1.95-.84,4.74,6.83,17.43,5.58,20.77-1.95,1.67-3.63,1.67-5.58,1.53-36.81Zm-9.34,30.81c-2.09,4.6-9.76,3.07-11.15-2.09-.28-.84-.28-9.34-.28-27.05,0,0,0-17.71.14-25.79,0-.56.56-1.81.56-1.81,1.95-4.04,6.13-5.58,9.06-2.93,1.81,1.81,1.81,1.67,2.23,31.23,0,24.68,0,27.19-.56,28.44Z"/>
        <path class="cls-1" d="m181.71,283.78c-2.65-4.04-11.15-6.41-16.87-4.46-3.63.84-9.06,5.86-9.2,11.29-.14,10.04,0,17.71-.14,27.75-.14,31.79-.14,31.65,1.81,35.27,4.74,8.92,21.19,8.51,25.52-.56,1.53-3.35,1.53-3.9,1.53-34.72-.14-32.9,0-30.81-2.65-34.58Zm-8.5,66.37c-2.93,1.53-6.97.42-8.23-2.09-.84-1.67-1.25-49.91-.56-54.79.7-4.6,5.44-6.83,9.06-4.32,2.51,1.81,2.37.42,2.37,30.67s.14,29.14-2.65,30.53Z"/>
        <path class="cls-6" d="m3.63,268.26v12.27H0v9.48h3.63v27.89c0,33.74.14,34.44,4.32,38.62,2.65,2.79,9.34,4.46,13.52,3.35l.84-.28v-9.2l-.84.28c-1.25.28-3.63-.42-4.74-1.39-2.09-1.81-1.95-.7-2.09-31.37l-.14-28.16h7.53v-9.48h-7.53v-25.89H3.63v13.9"/>
        <path class="cls-6" d="m56.5,358.1c-.14-.56-.42-16.31-.56-35.14-.28-36.53-.14-34.72-1.95-38.06-2.37-5.16-11.57-7.67-17.99-5.3-6.55,2.51-7.81,5.72-8.09,20.91l-.14,10.88h9.48v-8.23c0-12.13.42-13.25,4.18-13.25s4.18,1.25,4.32,13.11v9.06l-3.35,1.53c-12.97,6-15.62,10.74-15.62,28.02,0,9.48.28,11.43,1.81,14.22,3.07,5.3,12.27,5.86,16.45,1.12l1.39-1.53.14,1.67.14,3h10.04l-.28-2.02Zm-11.43-10.6c-1.67,2.65-5.58,2.65-6.97,0-1.25-2.37-.84-17.85.56-20.77.98-2.09,5.16-5.44,6.83-5.58.28,0,.28,5.72.28,12.69,0,11.85,0,12.69-.7,13.66Z"/>
        <path class="cls-6" d="m82.65,319.54s0-.01-.01-.02c-.08-.09-.16-.18-.25-.28h0c-.72-.8-1.5-1.64-2.36-2.56-8.54-9.1-8.68-9.1-8.68-17.77,0-7.84.56-9.1,4.06-9.1,3.22,0,4.06,2.1,4.06,11.19v6.16h10.07l-.14-9.1c-.28-11.75-.98-14.69-4.62-17.07-3.08-2.24-11.05-2.8-15.81-1.4-2.94.98-5.6,3.5-6.86,6.44-.84,2.1-.84,2.38-.84,12.03,0,12.7.13,13.65,6.89,21.17,0,0,.18.2.26.29h0c.72.8,1.5,1.64,2.36,2.56,8.54,9.1,8.68,9.1,8.68,17.77,0,7.84-.56,9.1-4.06,9.1-3.22,0-4.06-2.1-4.06-11.19v-5.32h-10.06l.13,8.26c.28,11.75.98,14.69,4.62,17.07,3.08,2.24,11.05,2.8,15.81,1.4,2.94-.98,5.6-3.5,6.86-6.44.84-2.1.84-2.38.84-12.03,0-12.7-.13-13.65-6.89-21.17h0Z"/>
      </g>
      <g>
        <polygon class="cls-7" points="182.43 168.7 133.85 139.85 133.85 233.17 182.43 206.29 182.43 168.7"/>
        <polygon class="cls-5" points="94.9 18.93 94.9 134.4 128.84 112.96 128.84 0 94.9 18.93"/>
        <polygon class="cls-4" points="80.32 149.55 80.32 200.06 128.84 233.17 128.84 118.9 80.32 149.55"/>
        <polygon class="cls-3" points="167.85 81.54 133.85 102.32 133.85 134.02 167.85 154.2 167.85 81.54"/>
        <polygon class="cls-2" points="153.26 40.7 133.85 29.18 133.85 96.44 153.26 84.58 153.26 40.7"/>
      </g>
    </g>
  </g>
</svg>